<?xml version="1.0" encoding="utf-8"?>
<!-- Generator: Adobe Illustrator 24.0.1, SVG Export Plug-In . SVG Version: 6.00 Build 0)  -->
<svg version="1.1" id="Calque_1" xmlns="http://www.w3.org/2000/svg" xmlns:xlink="http://www.w3.org/1999/xlink" x="0px" y="0px"
	 viewBox="0 0 1920 1080" style="enable-background:new 0 0 1920 1080;" xml:space="preserve">
<style type="text/css">
	.st0{fill:url(#SVGID_1_);}
	.st1{fill:url(#SVGID_2_);}
	.st2{fill:url(#SVGID_3_);}
	.st3{fill:url(#SVGID_4_);}
	.st4{fill:url(#SVGID_5_);}
	.st5{fill:url(#SVGID_6_);}
	.st6{fill:url(#SVGID_7_);}
	.st7{fill:url(#SVGID_8_);}
	.st8{fill:#FFFFFF;}
</style>
<g>
	<g>
		<g>
			
				<linearGradient id="SVGID_1_" gradientUnits="userSpaceOnUse" x1="61.1436" y1="615.1682" x2="1854.5758" y2="615.1682" gradientTransform="matrix(1 0 0 1 0 -60)">
				<stop  offset="0" style="stop-color:#FF0098"/>
				<stop  offset="1" style="stop-color:#FFFF98"/>
			</linearGradient>
			<path class="st0" d="M61.14,238.34h172.82v96.01h-76.81v441.65h76.81V872H61.14V238.34z"/>
			
				<linearGradient id="SVGID_2_" gradientUnits="userSpaceOnUse" x1="61.1436" y1="615.1682" x2="1854.5758" y2="615.1682" gradientTransform="matrix(1 0 0 1 0 -60)">
				<stop  offset="0" style="stop-color:#FF0098"/>
				<stop  offset="1" style="stop-color:#FFFF98"/>
			</linearGradient>
			<path class="st1" d="M342.77,439.96c-151.34,34.61-98.25-109.74-88.7-105.63c166.48-6.41,395.46-17.94,271,105.67
				c-151.13-56.85-43.56,259.87-73.53,333.58C261.08,858.33,369.39,524.22,342.77,439.96z"/>
			
				<linearGradient id="SVGID_3_" gradientUnits="userSpaceOnUse" x1="61.1436" y1="615.1682" x2="1854.5758" y2="615.1682" gradientTransform="matrix(1 0 0 1 0 -60)">
				<stop  offset="0" style="stop-color:#FF0098"/>
				<stop  offset="1" style="stop-color:#FFFF98"/>
			</linearGradient>
			<path class="st2" d="M569.99,334.34h279.07v105.61H678.79v64h115.21v102.41H678.79v64.01h170.26v105.61H569.99V334.34z"/>
			
				<linearGradient id="SVGID_4_" gradientUnits="userSpaceOnUse" x1="61.1436" y1="615.1682" x2="1854.5758" y2="615.1682" gradientTransform="matrix(1 0 0 1 0 -60)">
				<stop  offset="0" style="stop-color:#FF0098"/>
				<stop  offset="1" style="stop-color:#FFFF98"/>
			</linearGradient>
			<path class="st3" d="M868.25,334.34h108.81v177.94c38.61-83.35,90.84-219.8,208.03-177.94l-106.89,206.1
				c77.61,26.69,109.36,132.92,100.49,235.55h-108.81c0.55-62.47,8.88-155.46-92.81-160.02v160.02H868.25V334.34z"/>
			
				<linearGradient id="SVGID_5_" gradientUnits="userSpaceOnUse" x1="61.1436" y1="615.1682" x2="1854.5758" y2="615.1682" gradientTransform="matrix(1 0 0 1 0 -60)">
				<stop  offset="0" style="stop-color:#FF0098"/>
				<stop  offset="1" style="stop-color:#FFFF98"/>
			</linearGradient>
			<path class="st4" d="M1197.88,334.34h108.81v336.04h108.81v105.61h-217.62V334.34z"/>
			
				<linearGradient id="SVGID_6_" gradientUnits="userSpaceOnUse" x1="61.1436" y1="615.1682" x2="1854.5758" y2="615.1682" gradientTransform="matrix(1 0 0 1 0 -60)">
				<stop  offset="0" style="stop-color:#FF0098"/>
				<stop  offset="1" style="stop-color:#FFFF98"/>
			</linearGradient>
			<path class="st5" d="M1431.5,334.34h108.81v441.65H1431.5V334.34z"/>
			
				<linearGradient id="SVGID_7_" gradientUnits="userSpaceOnUse" x1="61.1436" y1="615.1682" x2="1854.5758" y2="615.1682" gradientTransform="matrix(1 0 0 1 0 -60)">
				<stop  offset="0" style="stop-color:#FF0098"/>
				<stop  offset="1" style="stop-color:#FFFF98"/>
			</linearGradient>
			<path class="st6" d="M1572.63,762.87c-64.25-50.77,64.33-182.59,104.02-43.85C1677.87,746.23,1639.37,811.46,1572.63,762.87z"/>
			
				<linearGradient id="SVGID_8_" gradientUnits="userSpaceOnUse" x1="61.1436" y1="615.1682" x2="1854.5758" y2="615.1682" gradientTransform="matrix(1 0 0 1 0 -60)">
				<stop  offset="0" style="stop-color:#FF0098"/>
				<stop  offset="1" style="stop-color:#FFFF98"/>
			</linearGradient>
			<path class="st7" d="M1681.76,872v-96.01h76.81V334.34h-76.81v-96.01h172.82V872H1681.76z"/>
		</g>
		<g>
			<path d="M61.14,238.34h172.82v96.01h-76.81v441.65h76.81V872H61.14V238.34z"/>
			<path d="M342.77,439.96c-151.34,34.61-98.25-109.74-88.7-105.63c166.48-6.41,395.46-17.94,271,105.67
				c-151.13-56.85-43.56,259.87-73.53,333.58C261.08,858.33,369.39,524.22,342.77,439.96z"/>
			<path d="M569.99,334.34h279.07v105.61H678.79v64h115.21v102.41H678.79v64.01h170.26v105.61H569.99V334.34z"/>
			<path d="M868.25,334.34h108.81v177.94c38.61-83.35,90.84-219.8,208.03-177.94l-106.89,206.1
				c77.61,26.69,109.36,132.92,100.49,235.55h-108.81c0.55-62.47,8.88-155.46-92.81-160.02v160.02H868.25V334.34z"/>
			<path d="M1197.88,334.34h108.81v336.04h108.81v105.61h-217.62V334.34z"/>
			<path d="M1431.5,334.34h108.81v441.65H1431.5V334.34z"/>
			<path d="M1572.63,762.87c-64.25-50.77,64.33-182.59,104.02-43.85C1677.87,746.23,1639.37,811.46,1572.63,762.87z"/>
			<path d="M1681.76,872v-96.01h76.81V334.34h-76.81v-96.01h172.82V872H1681.76z"/>
		</g>
	</g>
	<path d="M1611.14,789.95c40,0,40,8.89,40,8.89h-80.01C1571.14,798.84,1587.14,789.95,1611.14,789.95S1611.14,789.95,1611.14,789.95
		z"/>
	<path d="M1613.62,808.03c59.04,7.31,4.13,10.73-33.59,8.59C1568.87,816.4,1612.81,807.93,1613.62,808.03z"/>
	<path d="M1609.99,825.75c27.16,3.36,1.9,4.94-15.45,3.95C1589.4,829.6,1609.62,825.7,1609.99,825.75z"/>
</g>
<g id="Tekli_Logotype">
	<polygon style="fill:none;" points="1622.48,-56.18 1676.41,-56.18 1676.41,-56.18 1622.48,-56.18 	"/>
</g>
<g>
	<g>
		<path class="st8" d="M1928.13,499.08c1.93,0,1.93-3,0-3C1926.2,496.08,1926.19,499.08,1928.13,499.08L1928.13,499.08z"/>
	</g>
</g>
</svg>
