<?xml version="1.0" encoding="utf-8"?>
<!-- Generator: Adobe Illustrator 24.0.3, SVG Export Plug-In . SVG Version: 6.00 Build 0)  -->
<svg version="1.1" id="Calque_1" xmlns="http://www.w3.org/2000/svg" xmlns:xlink="http://www.w3.org/1999/xlink" x="0px" y="0px"
	 viewBox="0 0 1920 1080" style="enable-background:new 0 0 1920 1080;" xml:space="preserve">
<style type="text/css">
	.st0{fill:#176BEF;}
	.st1{fill:#F7B529;}
	.st2{fill:#2A5FF4;}
	.st3{fill:#FFFFFF;}
	.st4{fill:#4791EA;}
</style>
<g>
	<path class="st0" d="M375.09,707.05V339.26h-125.1v-80.06h334.64v80.06h-125.1v367.79H375.09z"/>
	<path class="st0" d="M874.86,633.24c-14.18,25.02-33.26,45.25-57.23,60.67c-23.98,15.42-53.27,23.14-87.88,23.14
		c-23.36,0-44.94-4.07-64.74-12.2c-19.81-8.13-37.01-19.49-51.6-34.09c-14.6-14.59-25.96-31.79-34.09-51.6
		c-8.13-19.8-12.2-41.6-12.2-65.36c0-22.1,3.96-43.05,11.88-62.86c7.92-19.8,18.97-37.11,33.15-51.92
		c14.17-14.8,30.96-26.58,50.35-35.34c19.39-8.76,40.76-13.14,64.11-13.14c24.6,0,46.49,4.07,65.68,12.2
		c19.18,8.13,35.23,19.39,48.16,33.78c12.92,14.39,22.72,31.38,29.4,50.98c6.67,19.61,10.01,40.87,10.01,63.8c0,2.92,0,5.42,0,7.51
		c-0.42,2.5-0.63,4.8-0.63,6.88c-0.42,2.09-0.63,4.38-0.63,6.88H647.81c1.66,12.51,5.1,23.25,10.32,32.21
		c5.21,8.97,11.67,16.48,19.39,22.52c7.71,6.05,16.16,10.43,25.33,13.14c9.17,2.72,18.55,4.07,28.15,4.07
		c18.77,0,34.29-4.27,46.6-12.82c12.29-8.54,21.99-19.28,29.09-32.21L874.86,633.24z M800.43,514.4
		c-0.42-5.41-2.19-11.46-5.32-18.14c-3.13-6.67-7.72-12.92-13.76-18.77c-6.05-5.83-13.56-10.63-22.52-14.39
		c-8.97-3.75-19.7-5.63-32.21-5.63c-17.51,0-32.95,5-46.29,15.01c-13.35,10.01-22.73,23.98-28.15,41.91H800.43z"/>
	<path class="st0" d="M932.41,259.19h81.94v243.94h3.75l102.58-102.58h101.33v5l-113.84,110.71l123.22,185.77v5h-96.95
		l-83.82-134.48l-36.28,35.65v98.83h-81.94V259.19z"/>
	<path class="st0" d="M1263.92,707.05V259.19h81.94v447.86H1263.92z"/>
	<path class="st0" d="M1461.58,359.27c-7.1,0-13.87-1.35-20.33-4.07c-6.47-2.71-12.1-6.46-16.89-11.26
		c-4.8-4.79-8.55-10.32-11.26-16.58c-2.72-6.25-4.07-13.14-4.07-20.64c0-7.51,1.35-14.39,4.07-20.64
		c2.71-6.25,6.46-11.78,11.26-16.58c4.79-4.79,10.42-8.54,16.89-11.26c6.46-2.71,13.23-4.07,20.33-4.07
		c14.59,0,27.1,5.11,37.53,15.32c10.42,10.22,15.64,22.63,15.64,37.22c0,14.6-5.22,27-15.64,37.22
		C1488.68,354.17,1476.17,359.27,1461.58,359.27z M1420.92,707.05V400.55h81.94v306.49H1420.92z"/>
</g>
<g>
	<path class="st1" d="M1558.72,691.12c-83.89-66.29,83.99-238.38,135.81-57.25C1696.11,669.4,1645.85,754.56,1558.72,691.12z"/>
	<path class="st2" d="M1608.99,726.47c52.23,0,52.23,11.61,52.23,11.61h-104.46C1556.76,738.08,1577.65,726.47,1608.99,726.47
		C1640.33,726.47,1608.99,726.47,1608.99,726.47z"/>
	<path class="st2" d="M1612.22,750.08c77.07,9.55,5.39,14.02-43.86,11.21C1553.8,761.02,1611.17,749.95,1612.22,750.08z"/>
	<path class="st2" d="M1607.49,773.22c35.46,4.39,2.48,6.45-20.18,5.16C1580.61,778.25,1607,773.16,1607.49,773.22z"/>
</g>
<g id="Tekli_Logotype">
</g>
<g>
	<g>
		<path class="st3" d="M1928.13,515.08c1.93,0,1.93-3,0-3C1926.2,512.08,1926.19,515.08,1928.13,515.08L1928.13,515.08z"/>
	</g>
</g>
<g>
	<path class="st0" d="M380.61,846.1h-11.05v-86h11.05V846.1z"/>
	<path class="st0" d="M395.99,787.25h10.57v8.17h0.48c1.68-2.88,4.26-5.29,7.75-7.21s7.11-2.88,10.87-2.88
		c7.21,0,12.75,2.06,16.64,6.19c3.88,4.12,5.83,9.99,5.83,17.6v37h-11.05v-36.27c-0.24-9.61-5.09-14.41-14.53-14.41
		c-4.4,0-8.09,1.78-11.05,5.34c-2.96,3.56-4.44,7.83-4.44,12.79v32.55h-11.05V787.25z"/>
	<path class="st0" d="M461.09,787.25h10.57v8.17h0.48c1.68-2.88,4.26-5.29,7.75-7.21s7.11-2.88,10.87-2.88
		c7.21,0,12.75,2.06,16.64,6.19c3.88,4.12,5.83,9.99,5.83,17.6v37h-11.05v-36.27c-0.24-9.61-5.09-14.41-14.53-14.41
		c-4.4,0-8.09,1.78-11.05,5.34c-2.96,3.56-4.44,7.83-4.44,12.79v32.55h-11.05V787.25z"/>
	<path class="st0" d="M522.82,816.68c0-9.05,2.84-16.53,8.53-22.46c5.77-5.92,13.01-8.89,21.74-8.89c8.73,0,15.93,2.96,21.62,8.89
		c5.77,5.93,8.65,13.41,8.65,22.46c0,9.13-2.88,16.62-8.65,22.46c-5.69,5.93-12.89,8.89-21.62,8.89c-8.73,0-15.97-2.96-21.74-8.89
		C525.67,833.21,522.82,825.73,522.82,816.68z M533.87,816.68c0,6.33,1.84,11.45,5.52,15.38c3.68,3.92,8.25,5.88,13.69,5.88
		c5.44,0,10.01-1.96,13.69-5.88c3.68-3.92,5.53-9.05,5.53-15.38c0-6.25-1.84-11.33-5.53-15.25c-3.76-4-8.33-6.01-13.69-6.01
		c-5.37,0-9.93,2-13.69,6.01C535.71,805.35,533.87,810.43,533.87,816.68z"/>
	<path class="st0" d="M620.84,846.1h-11.05L586,787.25h12.01l17.3,45.64h0.24l17.54-45.64h11.77L620.84,846.1z"/>
	<path class="st0" d="M673.2,785.33c8.17,0,14.61,2.18,19.34,6.55c4.72,4.37,7.09,10.35,7.09,17.96v36.27h-10.57v-8.17h-0.48
		c-4.56,6.73-10.65,10.09-18.26,10.09c-6.49,0-11.91-1.92-16.28-5.77c-4.37-3.84-6.55-8.65-6.55-14.41c0-6.08,2.3-10.93,6.91-14.53
		c4.6-3.6,10.75-5.41,18.44-5.41c6.56,0,11.97,1.2,16.21,3.6v-2.52c0-3.84-1.52-7.1-4.56-9.79c-3.04-2.68-6.61-4.02-10.69-4.02
		c-6.17,0-11.05,2.6-14.65,7.81l-9.73-6.13C654.79,789.17,662.71,785.33,673.2,785.33z M658.91,828.09c0,2.88,1.22,5.28,3.66,7.21
		c2.44,1.92,5.3,2.88,8.59,2.88c4.64,0,8.79-1.72,12.43-5.16c3.64-3.44,5.46-7.49,5.46-12.13c-3.44-2.72-8.25-4.08-14.41-4.08
		c-4.49,0-8.23,1.08-11.23,3.24C660.41,822.2,658.91,824.88,658.91,828.09z"/>
	<path class="st0" d="M734.22,847.06c-4.8,0-8.79-1.48-11.95-4.44c-3.16-2.96-4.79-7.09-4.86-12.37v-32.91h-10.33v-10.09h10.33
		v-18.02h11.05v18.02h14.41v10.09h-14.41v29.31c0,3.92,0.76,6.59,2.28,7.99c1.52,1.4,3.24,2.1,5.17,2.1c0.88,0,1.74-0.1,2.58-0.3
		c0.84-0.2,1.62-0.46,2.34-0.78l3.48,9.85C741.43,846.54,738.06,847.06,734.22,847.06z"/>
	<path class="st0" d="M768.33,766.95c0,2.16-0.76,4-2.28,5.53c-1.52,1.52-3.36,2.28-5.53,2.28s-4-0.76-5.53-2.28
		c-1.52-1.52-2.28-3.36-2.28-5.53s0.76-4,2.28-5.53c1.52-1.52,3.36-2.28,5.53-2.28s4,0.76,5.53,2.28
		C767.57,762.95,768.33,764.79,768.33,766.95z M766.05,787.25v58.86H755v-58.86H766.05z"/>
	<path class="st0" d="M809.05,846.1H798l-23.78-58.86h12.01l17.3,45.64h0.24l17.54-45.64h11.77L809.05,846.1z"/>
	<path class="st0" d="M864.9,848.03c-8.65,0-15.78-2.96-21.38-8.89c-5.61-5.92-8.41-13.41-8.41-22.46c0-8.97,2.72-16.43,8.17-22.4
		c5.44-5.96,12.41-8.95,20.9-8.95c8.73,0,15.67,2.82,20.84,8.47c5.16,5.64,7.75,13.55,7.75,23.72l-0.12,1.2H846.4
		c0.16,5.77,2.08,10.41,5.77,13.93c3.68,3.52,8.09,5.28,13.21,5.28c7.05,0,12.57-3.52,16.58-10.57l9.85,4.8
		c-2.64,4.97-6.31,8.85-10.99,11.65C876.13,846.62,870.82,848.03,864.9,848.03z M847.24,809.59h33.75
		c-0.32-4.08-1.98-7.46-4.98-10.15c-3-2.68-7.03-4.02-12.07-4.02c-4.16,0-7.75,1.28-10.75,3.84
		C850.18,801.82,848.2,805.27,847.24,809.59z"/>
	<path class="st0" d="M952.58,847.06c-4.8,0-8.79-1.48-11.95-4.44c-3.16-2.96-4.79-7.09-4.86-12.37v-32.91h-10.33v-10.09h10.33
		v-18.02h11.05v18.02h14.41v10.09h-14.41v29.31c0,3.92,0.76,6.59,2.28,7.99c1.52,1.4,3.24,2.1,5.17,2.1c0.88,0,1.74-0.1,2.58-0.3
		c0.84-0.2,1.62-0.46,2.34-0.78l3.48,9.85C959.78,846.54,956.42,847.06,952.58,847.06z"/>
	<path class="st0" d="M997.62,848.03c-8.65,0-15.78-2.96-21.38-8.89c-5.61-5.92-8.41-13.41-8.41-22.46c0-8.97,2.72-16.43,8.17-22.4
		c5.44-5.96,12.41-8.95,20.9-8.95c8.73,0,15.67,2.82,20.84,8.47c5.17,5.64,7.75,13.55,7.75,23.72l-0.12,1.2h-46.24
		c0.16,5.77,2.08,10.41,5.77,13.93c3.68,3.52,8.09,5.28,13.21,5.28c7.04,0,12.57-3.52,16.58-10.57l9.85,4.8
		c-2.64,4.97-6.31,8.85-10.99,11.65C1008.85,846.62,1003.54,848.03,997.62,848.03z M979.96,809.59h33.75
		c-0.32-4.08-1.98-7.46-4.98-10.15c-3-2.68-7.03-4.02-12.07-4.02c-4.17,0-7.75,1.28-10.75,3.84
		C982.91,801.82,980.92,805.27,979.96,809.59z"/>
	<path class="st0" d="M1063.08,848.03c-8.73,0-15.98-2.96-21.74-8.89c-5.69-6.08-8.53-13.57-8.53-22.46
		c0-9.05,2.84-16.53,8.53-22.46c5.76-5.92,13.01-8.89,21.74-8.89c6,0,11.25,1.5,15.73,4.5c4.48,3,7.85,7.15,10.09,12.43l-10.09,4.2
		c-3.12-7.37-8.61-11.05-16.46-11.05c-5.04,0-9.41,2.04-13.09,6.13c-3.6,4.08-5.41,9.13-5.41,15.13s1.8,11.05,5.41,15.13
		c3.68,4.08,8.05,6.12,13.09,6.12c8.09,0,13.77-3.68,17.06-11.05l9.85,4.2c-2.16,5.28-5.55,9.43-10.15,12.43
		C1074.51,846.52,1069.16,848.03,1063.08,848.03z"/>
	<path class="st0" d="M1098.87,760.1h11.05v27.15l-0.48,8.17h0.48c1.68-2.88,4.26-5.29,7.75-7.21c3.48-1.92,7.11-2.88,10.87-2.88
		c7.21,0,12.75,2.06,16.63,6.19c3.88,4.12,5.83,9.99,5.83,17.6v37h-11.05v-34.83c0-10.57-4.68-15.85-14.05-15.85
		c-4.49,0-8.27,1.86-11.35,5.58c-3.08,3.72-4.62,8.07-4.62,13.03v32.07h-11.05V760.1z"/>
	<path class="st0" d="M1163.97,787.25h10.57v8.17h0.48c1.68-2.88,4.26-5.29,7.75-7.21c3.48-1.92,7.11-2.88,10.87-2.88
		c7.21,0,12.75,2.06,16.63,6.19c3.88,4.12,5.83,9.99,5.83,17.6v37h-11.05v-36.27c-0.24-9.61-5.09-14.41-14.53-14.41
		c-4.41,0-8.09,1.78-11.05,5.34c-2.96,3.56-4.44,7.83-4.44,12.79v32.55h-11.05V787.25z"/>
	<path class="st0" d="M1225.71,816.68c0-9.05,2.84-16.53,8.53-22.46c5.76-5.92,13.01-8.89,21.74-8.89c8.73,0,15.93,2.96,21.62,8.89
		c5.77,5.93,8.65,13.41,8.65,22.46c0,9.13-2.88,16.62-8.65,22.46c-5.69,5.93-12.89,8.89-21.62,8.89c-8.73,0-15.98-2.96-21.74-8.89
		C1228.55,833.21,1225.71,825.73,1225.71,816.68z M1236.76,816.68c0,6.33,1.84,11.45,5.53,15.38c3.68,3.92,8.25,5.88,13.69,5.88
		c5.44,0,10.01-1.96,13.69-5.88c3.68-3.92,5.53-9.05,5.53-15.38c0-6.25-1.84-11.33-5.53-15.25c-3.76-4-8.33-6.01-13.69-6.01
		c-5.37,0-9.93,2-13.69,6.01C1238.6,805.35,1236.76,810.43,1236.76,816.68z"/>
	<path class="st0" d="M1306.79,760.1v86h-11.05v-86H1306.79z"/>
	<path class="st0" d="M1316.28,816.68c0-9.05,2.84-16.53,8.53-22.46c5.76-5.92,13.01-8.89,21.74-8.89c8.73,0,15.93,2.96,21.62,8.89
		c5.77,5.93,8.65,13.41,8.65,22.46c0,9.13-2.88,16.62-8.65,22.46c-5.69,5.93-12.89,8.89-21.62,8.89c-8.73,0-15.98-2.96-21.74-8.89
		C1319.12,833.21,1316.28,825.73,1316.28,816.68z M1327.33,816.68c0,6.33,1.84,11.45,5.53,15.38c3.68,3.92,8.25,5.88,13.69,5.88
		c5.44,0,10.01-1.96,13.69-5.88c3.68-3.92,5.53-9.05,5.53-15.38c0-6.25-1.84-11.33-5.53-15.25c-3.76-4-8.33-6.01-13.69-6.01
		c-5.37,0-9.93,2-13.69,6.01C1329.17,805.35,1327.33,810.43,1327.33,816.68z"/>
	<path class="st0" d="M1412.97,873.97c-3.28,0-6.37-0.42-9.25-1.26s-5.51-2.02-7.87-3.54c-2.36-1.52-4.38-3.32-6.07-5.41
		c-1.68-2.08-2.96-4.4-3.84-6.97l10.45-4.32c1.2,3.44,3.28,6.2,6.25,8.29c2.96,2.08,6.41,3.12,10.33,3.12c6,0,10.69-1.8,14.05-5.4
		c3.36-3.6,5.04-8.57,5.04-14.89v-5.65h-0.48c-2.08,3.12-4.91,5.59-8.47,7.39c-3.56,1.8-7.43,2.7-11.59,2.7
		c-7.69,0-14.29-3-19.82-9.01c-5.45-6.17-8.17-13.61-8.17-22.34c0-8.73,2.72-16.13,8.17-22.22c5.52-6.08,12.13-9.13,19.82-9.13
		c4.16,0,8.03,0.9,11.59,2.7c3.56,1.8,6.38,4.26,8.47,7.39h0.48v-8.17h10.57v56.33c0,9.45-2.68,16.86-8.05,22.22
		C1429.14,871.25,1421.93,873.97,1412.97,873.97z M1413.33,837.94c5.44,0,9.89-1.96,13.33-5.88c3.6-3.92,5.41-9.05,5.41-15.38
		c0-6.17-1.8-11.25-5.41-15.25c-3.52-4-7.97-6.01-13.33-6.01c-5.29,0-9.73,2-13.33,6.01c-3.6,4-5.41,9.09-5.41,15.25
		c0,6.25,1.8,11.33,5.41,15.25C1403.6,835.94,1408.04,837.94,1413.33,837.94z"/>
	<path class="st0" d="M1470.38,766.95c0,2.16-0.76,4-2.28,5.53c-1.52,1.52-3.36,2.28-5.53,2.28c-2.16,0-4-0.76-5.52-2.28
		c-1.52-1.52-2.28-3.36-2.28-5.53s0.76-4,2.28-5.53c1.52-1.52,3.36-2.28,5.52-2.28c2.16,0,4,0.76,5.53,2.28
		C1469.62,762.95,1470.38,764.79,1470.38,766.95z M1468.09,787.25v58.86h-11.05v-58.86H1468.09z"/>
	<path class="st0" d="M1508.33,848.03c-8.65,0-15.78-2.96-21.38-8.89c-5.61-5.92-8.41-13.41-8.41-22.46c0-8.97,2.72-16.43,8.17-22.4
		c5.44-5.96,12.41-8.95,20.9-8.95c8.73,0,15.67,2.82,20.84,8.47c5.17,5.64,7.75,13.55,7.75,23.72l-0.12,1.2h-46.24
		c0.16,5.77,2.08,10.41,5.77,13.93c3.68,3.52,8.09,5.28,13.21,5.28c7.04,0,12.57-3.52,16.58-10.57l9.85,4.8
		c-2.64,4.97-6.31,8.85-10.99,11.65C1519.56,846.62,1514.26,848.03,1508.33,848.03z M1490.68,809.59h33.75
		c-0.32-4.08-1.98-7.46-4.98-10.15c-3-2.68-7.03-4.02-12.07-4.02c-4.17,0-7.75,1.28-10.75,3.84
		C1493.62,801.82,1491.64,805.27,1490.68,809.59z"/>
</g>
<g>
	<path class="st4" d="M95.51,861.81c-25.89-26.43-38.83-62.56-38.83-108.4V628.82c0-18.33-5.26-31.82-15.77-40.45
		c-10.52-8.62-22.52-12.94-36-12.94v-88.99c13.47,0,25.48-4.31,36-12.94c10.52-8.62,15.77-22.11,15.77-40.45V308.47
		c0-45.83,12.94-81.97,38.83-108.4c25.89-26.42,62.29-39.64,109.21-39.64h27.51v87.37h-12.94c-16.18,0-30.07,5.8-41.66,17.39
		c-11.6,11.6-17.39,27.38-17.39,47.33v118.11c0,27.5-4.18,49.08-12.54,64.72c-8.37,15.65-23.06,26.43-44.09,32.36v6.47
		c21.03,5.94,35.72,16.72,44.09,32.36c8.35,15.65,12.54,37.21,12.54,64.72v118.11c0,19.96,5.79,35.73,17.39,47.33
		c11.59,11.59,25.48,17.39,41.66,17.39h12.94v87.37h-27.51C157.8,901.45,121.4,888.22,95.51,861.81z"/>
</g>
<g>
	<path class="st4" d="M1690.83,901.45v-87.37h13.75c16.18,0,29.93-5.8,41.26-17.39c11.33-11.59,16.99-27.37,16.99-47.33V631.25
		c0-27.51,4.31-49.07,12.94-64.72c8.62-15.64,23.46-26.42,44.49-32.36v-6.47c-21.03-5.93-35.87-16.71-44.49-32.36
		c-8.63-15.64-12.94-37.21-12.94-64.72V312.51c0-19.95-5.66-35.72-16.99-47.33c-11.33-11.59-25.08-17.39-41.26-17.39h-13.75v-87.37
		h28.31c46.92,0,83.19,13.22,108.81,39.64c25.61,26.43,38.43,62.57,38.43,108.4v124.58c0,18.34,5.26,31.83,15.77,40.45
		c10.52,8.63,22.51,12.94,36,12.94v88.99c-13.49,0-25.48,4.32-36,12.94c-10.52,8.63-15.77,22.12-15.77,40.45V753.4
		c0,45.85-12.82,81.97-38.43,108.4c-25.62,26.42-61.89,39.64-108.81,39.64H1690.83z"/>
</g>
</svg>
